<svg width="39" height="39" viewBox="0 0 39 39" fill="none" xmlns="http://www.w3.org/2000/svg">
<g clip-path="url(#clip0_79_399)">
<path d="M37.375 17.875H1.625C0.727537 17.875 0 18.6025 0 19.5C0 20.3975 0.727537 21.125 1.625 21.125H37.375C38.2725 21.125 39 20.3975 39 19.5C39 18.6025 38.2725 17.875 37.375 17.875Z" fill="white"/>
<path d="M37.375 6.5H1.625C0.727537 6.5 0 7.22754 0 8.125C0 9.02246 0.727537 9.75 1.625 9.75H37.375C38.2725 9.75 39 9.02246 39 8.125C39 7.22754 38.2725 6.5 37.375 6.5Z" fill="white"/>
<path d="M37.375 29.25H1.625C0.727537 29.25 0 29.9775 0 30.875C0 31.7725 0.727537 32.5 1.625 32.5H37.375C38.2725 32.5 39 31.7725 39 30.875C39 29.9775 38.2725 29.25 37.375 29.25Z" fill="white"/>
</g>
<defs>
<clipPath id="clip0_79_399">
<rect width="39" height="39" fill="white"/>
</clipPath>
</defs>
</svg>
